<?xml version="1.0" standalone="no"?>
<!DOCTYPE svg PUBLIC "-//W3C//DTD SVG 1.1//EN" "http://www.w3.org/Graphics/SVG/1.1/DTD/svg11.dtd" >
<svg xmlns="http://www.w3.org/2000/svg">
<metadata></metadata>
<defs>
<font id="atrotissemisans-extraboldRg" horiz-adv-x="1062" >
<font-face units-per-em="2048" ascent="1638" descent="-410" />
<missing-glyph horiz-adv-x="608" />
<glyph horiz-adv-x="2048" />
<glyph horiz-adv-x="2048" />
<glyph unicode="&#xd;" horiz-adv-x="608" />
<glyph unicode=" "  horiz-adv-x="608" />
<glyph unicode="&#x09;" horiz-adv-x="608" />
<glyph unicode="&#xa0;" horiz-adv-x="608" />
<glyph unicode="!" horiz-adv-x="645" d="M258 0v283h281v-283h-281zM258 1413h281l-50 -993h-182z" />
<glyph unicode="&#x22;" horiz-adv-x="872" d="M109 1413h276l-45 -485h-186zM489 1413h277l-45 -485h-186z" />
<glyph unicode="#" horiz-adv-x="1214" d="M127 387l41 162h141l51 196h-141l41 162h141l101 391h188l-100 -391h160l102 391h188l-100 -391h145l-43 -162h-145l-49 -196h145l-43 -162h-145l-98 -387h-189l98 387h-159l-101 -387h-188l100 387h-141zM498 549h161l50 196h-160z" />
<glyph unicode="$" horiz-adv-x="1177" d="M106 295h269q0 -166 153 -193v545q-170 47 -285.5 125t-115.5 250q0 190 128 270t273 80v162h125v-162q182 -18 280.5 -104t115.5 -221h-269q0 78 -23.5 127t-103.5 73v-497q225 -80 325.5 -147.5t100.5 -268.5q0 -203 -130 -280t-296 -77v-186h-125v186q-203 0 -304 82 t-118 236zM399 1038q0 -111 34 -156.5t95 -84.5v450q-129 -37 -129 -209zM653 102q76 18 115 68.5t39 148.5q0 117 -41 177.5t-113 101.5v-496z" />
<glyph unicode="%" horiz-adv-x="1820" d="M59 864q0 211 82 334t256 123t257 -123t83 -334t-82 -333.5t-258 -122.5q-174 0 -256 121.5t-82 334.5zM246 864q0 -178 30.5 -273t120.5 -95q88 0 121 97t33 271q0 180 -32 274.5t-122 94.5q-88 0 -119.5 -96.5t-31.5 -272.5zM594 0l475 1298h156l-475 -1298h-156z M1083 434q0 213 82 336t256 123t257 -124t83 -335t-82 -334t-258 -123q-174 0 -256 122t-82 335zM1270 434q0 -178 30.5 -273t120.5 -95q88 0 121 97t33 271q0 182 -31 276.5t-123 94.5q-86 0 -118.5 -97.5t-32.5 -273.5z" />
<glyph unicode="&#x26;" horiz-adv-x="1443" d="M96 362q0 178 84 252t223 95q-129 35 -207.5 99t-78.5 220q0 166 109.5 255t308.5 89q80 0 130 -8t121 -27v-149q-53 31 -113.5 47t-107.5 16q-88 0 -134 -56t-46 -159q0 -162 73.5 -213t229.5 -51h242v438l248 150v-588h274v-119h-274v-372q0 -92 31.5 -133.5 t115.5 -41.5q27 0 55.5 8.5t59.5 20.5v-139q-78 -12 -112 -15.5t-87 -3.5q-160 0 -235.5 59.5t-75.5 278.5v338h-242q-172 0 -247.5 -52t-75.5 -220q0 -137 52 -211t183 -74q57 0 102.5 13.5t102.5 35.5v-137q-123 -31 -250 -31q-215 0 -337 89.5t-122 295.5z" />
<glyph unicode="'" horiz-adv-x="493" d="M109 1413h276l-45 -485h-186z" />
<glyph unicode="(" horiz-adv-x="684" d="M131 621q0 334 28.5 510t136 286.5t341.5 136.5v-118q-115 -25 -169 -146t-65.5 -266t-11.5 -403q0 -254 12.5 -402.5t65.5 -267.5t168 -144v-118q-231 27 -339 136t-137.5 290.5t-29.5 505.5z" />
<glyph unicode=")" horiz-adv-x="684" d="M39 -193q113 25 165 143t65.5 279.5t13.5 391.5q0 252 -11.5 403.5t-63.5 269t-169 142.5v118q229 -27 337.5 -137t137.5 -292.5t29 -503.5q0 -334 -28 -509t-135.5 -286t-340.5 -137v118z" />
<glyph unicode="*" horiz-adv-x="645" d="M12 1059v141h142l69 -20l4 4l-53 51l-72 129l125 72l74 -129l21 -72l20 72l74 129l123 -72l-72 -129l-51 -51l4 -4l72 20h141v-141h-141l-72 20l-4 -4l51 -53l72 -125l-123 -72l-74 123l-16 74l-25 -74l-74 -123l-125 72l72 125l53 53l-4 4l-69 -20h-142z" />
<glyph unicode="+" horiz-adv-x="1214" d="M121 428v186h387v383h201v-383h387v-186h-387v-428h-201v428h-387z" />
<glyph unicode="," horiz-adv-x="493" d="M100 -203l19 486h276l-106 -486h-189z" />
<glyph unicode="-" horiz-adv-x="948" d="M94 418v219h762v-219h-762z" />
<glyph unicode="." horiz-adv-x="493" d="M104 0v283h283v-283h-283z" />
<glyph unicode="/" horiz-adv-x="645" d="M-20 -279l469 1838h217l-469 -1838h-217z" />
<glyph unicode="0" horiz-adv-x="1138" d="M72 649q0 313 120.5 492.5t376.5 179.5q254 0 375 -180t121 -492q0 -313 -119 -492.5t-377 -179.5q-256 0 -376.5 180.5t-120.5 491.5zM344 649q0 -266 47 -404.5t178 -138.5q127 0 175.5 139.5t48.5 403.5q0 262 -47.5 402.5t-176.5 140.5t-177 -139.5t-48 -403.5z" />
<glyph unicode="1" horiz-adv-x="1138" d="M236 973v172l290 176h207v-1321h-258v1118z" />
<glyph unicode="2" horiz-adv-x="1138" d="M98 0v182q86 66 230.5 209.5t258 313t113.5 313.5q0 72 -47 123t-121 51q-82 0 -117.5 -64.5t-35.5 -136.5h-281q0 133 114 231.5t325 98.5q182 0 309 -89t127 -267q0 -168 -109.5 -320.5t-249 -264.5t-247.5 -194l608 -4v-182h-877z" />
<glyph unicode="3" horiz-adv-x="1138" d="M80 291h280q0 -86 32 -135.5t140 -49.5q94 0 135.5 63.5t41.5 170.5q0 176 -57.5 226t-196.5 50v136q117 0 172 36.5t55 186.5q0 98 -34 157.5t-124 59.5q-80 0 -107.5 -49t-27.5 -127h-280q14 133 122.5 219t311.5 86q190 0 300.5 -82t110.5 -256q0 -141 -60 -202.5 t-159 -92.5q113 -29 179.5 -104.5t66.5 -225.5q0 -201 -115.5 -291t-339.5 -90q-207 0 -326.5 86.5t-119.5 227.5z" />
<glyph unicode="4" horiz-adv-x="1138" d="M57 322v167l551 809h269v-794h221v-182h-221v-322h-228v322h-592zM285 504h364v573z" />
<glyph unicode="5" horiz-adv-x="1138" d="M129 295h281q0 -94 37.5 -141.5t134.5 -47.5q117 0 160.5 80t43.5 205q0 150 -52 215.5t-138 65.5q-68 0 -104.5 -30t-59.5 -81h-239l34 737h729v-161h-491l-31 -400q41 29 87 46.5t128 17.5q199 0 304.5 -119t105.5 -305q0 -203 -132 -301.5t-343 -98.5 q-233 0 -344 94.5t-111 223.5z" />
<glyph unicode="6" horiz-adv-x="1138" d="M135 670q0 324 106.5 487.5t381.5 163.5q199 0 290 -89t111 -220h-281q0 82 -27.5 131t-99.5 49q-127 0 -167.5 -136t-40.5 -376q53 59 117.5 81.5t144.5 22.5q186 0 282.5 -95t96.5 -294q0 -209 -117 -313.5t-334 -104.5q-227 0 -345 137.5t-118 555.5zM408 455 q0 -145 39.5 -247t160.5 -102q96 0 132 78t36 199q0 115 -43 200t-145 85q-80 0 -130 -60.5t-50 -152.5z" />
<glyph unicode="7" horiz-adv-x="1138" d="M135 1137v161h850v-161l-442 -1137h-271l443 1137h-580z" />
<glyph unicode="8" horiz-adv-x="1138" d="M117 342q0 139 62.5 223t172.5 113q-106 31 -161.5 101.5t-55.5 213.5q0 168 124 248t310 80q184 0 309.5 -80t125.5 -248q0 -135 -61.5 -208.5t-168.5 -102.5q117 -35 182.5 -111.5t65.5 -228.5q0 -186 -118 -275.5t-335 -89.5q-213 0 -332.5 84t-119.5 281zM389 375 q0 -269 180 -269q102 0 141.5 72t39.5 197q0 244 -181 243q-86 0 -133 -63t-47 -180zM408 993q0 -121 35.5 -183t125.5 -62t126 59t36 186q0 92 -38 145.5t-124 53.5t-123.5 -55.5t-37.5 -143.5z" />
<glyph unicode="9" horiz-adv-x="1138" d="M96 903q0 209 117 313.5t334 104.5q227 0 345 -135t118 -557q0 -322 -106.5 -487t-381.5 -165q-201 0 -292 89.5t-109 222.5h280q0 -82 28 -132.5t97 -50.5q129 0 170 136.5t41 375.5q-53 -59 -117.5 -81.5t-144.5 -22.5q-186 0 -282.5 94t-96.5 295zM369 918 q0 -119 41 -203t147 -84q82 0 131 60.5t49 152.5q0 150 -39 249t-161 99q-96 0 -132 -78t-36 -196z" />
<glyph unicode=":" horiz-adv-x="608" d="M221 0v283h283v-283h-283zM221 692v283h283v-283h-283z" />
<glyph unicode=";" horiz-adv-x="608" d="M205 -203l20 486h277l-111 -486h-186zM225 692v283h283v-283h-283z" />
<glyph unicode="&#x3c;" horiz-adv-x="1214" d="M111 442v111l993 442v-159l-793 -338l793 -338v-160z" />
<glyph unicode="=" horiz-adv-x="1214" d="M121 250v186h975v-186h-975zM121 606v187h975v-187h-975z" />
<glyph unicode="&#x3e;" horiz-adv-x="1214" d="M111 0v160l792 338l-792 338v159l993 -442v-111z" />
<glyph unicode="?" horiz-adv-x="948" d="M154 1167v238q61 10 127.5 20.5t152.5 10.5q188 0 337 -66.5t149 -263.5q0 -150 -132.5 -263.5t-212 -184t-79.5 -197.5v-41h-187v74q0 186 87 276t153.5 160.5t84 112.5t17.5 83q0 70 -52 112t-140 42t-163 -34t-142 -79zM262 0v283h283v-283h-283z" />
<glyph unicode="@" horiz-adv-x="2048" d="M195 406q0 365 274 639t645 274q313 0 526 -186.5t213 -475.5q0 -270 -177 -463.5t-398 -193.5q-84 0 -116 46t-32 99q-76 -76 -131 -104.5t-135 -28.5q-119 0 -195.5 77t-76.5 216q0 231 167 450.5t363 219.5q104 0 155.5 -47t82.5 -105l45 111h178l-172 -424 q-45 -117 -85 -220.5t-40 -127.5q0 -55 62 -56q135 0 273 156t138 395q0 254 -186.5 405.5t-452.5 151.5q-297 0 -540.5 -251.5t-243.5 -554.5q0 -256 194.5 -421t518.5 -165q188 0 326 51t272 156l55 -47q-100 -109 -294 -181.5t-368 -72.5q-369 0 -607 189t-238 489z M756 233q0 -70 37.5 -103.5t103.5 -33.5q84 0 130 48.5t109.5 150.5t110.5 256t47 213q0 51 -33.5 91t-93.5 40q-139 0 -275 -246t-136 -416z" />
<glyph unicode="A" horiz-adv-x="1253" d="M0 0l487 1413h275l491 -1413h-284l-123 401h-481l-127 -401h-238zM412 551h389l-191 625z" />
<glyph unicode="B" horiz-adv-x="1177" d="M147 0v1413h396q211 0 343 -70.5t132 -263.5q0 -137 -74 -216t-174 -107q184 -45 252 -137.5t68 -231.5q0 -240 -158 -313.5t-389 -73.5h-396zM416 170h55q213 0 281.5 62.5t68.5 185.5q0 139 -86 200.5t-264 61.5h-55v-510zM416 829h55q170 0 224.5 56.5t54.5 161.5 q0 131 -67 174t-212 43h-55v-435z" />
<glyph unicode="C" horiz-adv-x="1177" d="M92 733q0 311 137.5 507t440.5 196q244 0 369.5 -108.5t125.5 -299.5h-305q0 106 -46 189t-161 83q-156 0 -217 -163.5t-61 -358.5q0 -322 96 -476.5t287 -154.5q135 0 213 47.5t137 92.5v-221q-102 -39 -194.5 -64t-204.5 -25q-313 0 -465 214.5t-152 541.5z" />
<glyph unicode="D" horiz-adv-x="1253" d="M150 0v1413h378q295 0 464 -142.5t169 -543.5q0 -307 -89 -466t-225 -210t-319 -51h-378zM418 170h110q211 0 281 127t70 430q0 287 -65.5 405.5t-285.5 118.5h-110v-1081z" />
<glyph unicode="E" d="M150 0v1413h825v-162h-557v-434h528v-162h-528v-485h575v-170h-843z" />
<glyph unicode="F" horiz-adv-x="987" d="M150 0v1413h798v-162h-530v-434h502v-162h-502v-655h-268z" />
<glyph unicode="G" horiz-adv-x="1290" d="M94 719q0 338 130 527.5t440 189.5q238 0 370.5 -97.5t132.5 -296.5h-290q0 98 -43 178t-170 80q-184 0 -235.5 -163.5t-51.5 -395.5q0 -295 79 -461.5t289 -166.5q59 0 102.5 15t63.5 42v492h-254v169h523v-722q-98 -59 -209 -95.5t-248 -36.5q-317 0 -473 204t-156 538 z" />
<glyph unicode="H" horiz-adv-x="1329" d="M152 0v1413h268v-592h491v592h269v-1413h-269v659h-491v-659h-268z" />
<glyph unicode="I" horiz-adv-x="569" d="M150 0v1413h268v-1413h-268z" />
<glyph unicode="J" horiz-adv-x="796" d="M0 2v193q43 -23 102.5 -35.5t110.5 -12.5q113 0 150.5 66t37.5 197v1003h269v-979q0 -233 -92.5 -345t-376.5 -112q-57 0 -101.5 6.5t-99.5 18.5z" />
<glyph unicode="K" horiz-adv-x="1214" d="M152 0v1413h268v-614l459 614h282l-506 -637l559 -776h-327l-463 684l-4 -684h-268z" />
<glyph unicode="L" horiz-adv-x="948" d="M152 0v1413h268v-1243h528v-170h-796z" />
<glyph unicode="M" horiz-adv-x="1783" d="M152 0v1413h331l408 -1153l401 1153h340v-1413h-237v1210l-420 -1210h-205l-416 1182l-4 -1182h-198z" />
<glyph unicode="N" horiz-adv-x="1366" d="M152 0v1413h292l547 -1048l4 1048h219v-1413h-266l-573 1100l-4 -1100h-219z" />
<glyph unicode="O" horiz-adv-x="1366" d="M94 707q0 342 143.5 535.5t446.5 193.5q299 0 444.5 -194.5t145.5 -534.5t-145.5 -535t-444.5 -195t-444.5 195t-145.5 535zM377 707q0 -281 73.5 -437.5t233.5 -156.5q162 0 234.5 154.5t72.5 439.5q0 281 -73.5 437t-233.5 156q-162 0 -234.5 -154.5t-72.5 -438.5z" />
<glyph unicode="P" d="M152 0v1413h335q279 0 420.5 -81t141.5 -310q0 -248 -163 -328t-399 -80h-67v-614h-268zM420 764h67q141 0 217 51t76 209q0 139 -69.5 189.5t-223.5 50.5h-67v-500z" />
<glyph unicode="Q" horiz-adv-x="1366" d="M90 707q0 340 145.5 534.5t444.5 194.5t444.5 -194.5t145.5 -534.5q0 -238 -60.5 -366t-165.5 -208l5 -4q104 10 160.5 29.5t133.5 64.5v-223h-663q-291 0 -440.5 191.5t-149.5 515.5zM373 707q0 -270 73.5 -421t233.5 -151q162 0 234.5 148.5t72.5 423.5 q0 285 -71.5 439t-235.5 154q-162 0 -234.5 -154.5t-72.5 -438.5z" />
<glyph unicode="R" horiz-adv-x="1177" d="M152 0v1413h321q281 0 437.5 -74.5t156.5 -294.5q0 -113 -65.5 -198.5t-229.5 -128.5q141 -29 190.5 -108t81.5 -234l80 -375h-268l-51 266q-41 207 -95.5 279.5t-205.5 72.5h-84v-618h-268zM420 768h53q158 0 242 55.5t84 200.5q0 152 -84 196t-242 44h-53v-496z" />
<glyph unicode="S" d="M72 1071q0 174 123.5 269.5t353.5 95.5q106 0 179 -10.5t173 -28.5v-219q-61 31 -172 63.5t-217 32.5q-86 0 -139.5 -39t-53.5 -107q0 -111 172.5 -211t337.5 -196q180 -137 181 -324q0 -219 -143.5 -319.5t-389.5 -100.5q-106 0 -200.5 19.5t-182.5 44.5v250 q102 -63 210 -107.5t216 -44.5q86 0 153.5 41t67.5 131q0 131 -166.5 233.5t-328.5 200.5q-174 135 -174 326z" />
<glyph unicode="T" horiz-adv-x="948" d="M0 1251v162h948v-162h-340v-1251h-268v1251h-340z" />
<glyph unicode="U" horiz-adv-x="1290" d="M135 481v932h268v-932q0 -184 48.5 -276t191.5 -92q152 0 199 88t47 280v932h268v-932q0 -233 -101.5 -368.5t-412.5 -135.5q-307 0 -407.5 135.5t-100.5 368.5z" />
<glyph unicode="V" horiz-adv-x="1177" d="M-35 1413h279l360 -1089l371 1089h237l-489 -1413h-277z" />
<glyph unicode="W" horiz-adv-x="1859" d="M47 1413h250l205 -1075l379 1075h141l373 -1075l211 1075h206l-278 -1413h-238l-370 1016l-359 -1016h-239z" />
<glyph unicode="X" horiz-adv-x="1177" d="M0 0l442 719l-405 694h311l254 -450l264 450h262l-403 -655l453 -758h-312l-301 510l-303 -510h-262z" />
<glyph unicode="Y" horiz-adv-x="1101" d="M-35 1413h309l297 -518l308 518h258l-463 -751v-662h-268v662z" />
<glyph unicode="Z" horiz-adv-x="1026" d="M35 0v170l618 1081h-583v162h888v-162l-612 -1081h643v-170h-954z" />
<glyph unicode="[" horiz-adv-x="720" d="M203 -279v1838h497v-146h-262v-1546h262v-146h-497z" />
<glyph unicode="\" horiz-adv-x="645" d="M-20 1559h217l469 -1838h-217z" />
<glyph unicode="]" horiz-adv-x="720" d="M20 -133h263v1546h-263v146h498v-1838h-498v146z" />
<glyph unicode="^" horiz-adv-x="872" d="M127 1061l246 352h127l245 -352h-165l-144 184l-143 -184h-166z" />
<glyph unicode="_" horiz-adv-x="1024" d="M0 -133h1024v-103h-1024v103z" />
<glyph unicode="`" horiz-adv-x="686" d="M98 1487h248l92 -342h-170z" />
<glyph unicode="a" horiz-adv-x="1024" d="M90 221q0 195 182.5 260.5t370.5 65.5v164q0 106 -29.5 148t-93.5 42q-66 0 -98.5 -51t-32.5 -166h-264q0 313 397 313q213 0 291 -87t78 -251v-659h-248v129q-47 -72 -126 -112t-155 -40q-119 0 -195.5 69t-76.5 175zM346 256q0 -61 30 -99t83 -38q84 0 134 75.5 t50 184.5v72q-117 -12 -207 -51.5t-90 -143.5z" />
<glyph unicode="b" d="M121 494v919h248v-569q63 88 123.5 120.5t142.5 32.5q182 0 264 -136t82 -367q0 -274 -110.5 -395.5t-311.5 -121.5q-281 0 -359.5 135.5t-78.5 381.5zM379 494q0 -203 28 -311.5t134 -108.5q96 0 134 119.5t38 300.5q0 143 -37 252.5t-135 109.5q-90 0 -126 -111.5 t-36 -250.5z" />
<glyph unicode="c" horiz-adv-x="911" d="M78 526q0 219 108.5 345t331.5 126q209 0 293 -88t84 -264h-264q0 141 -23.5 198.5t-99.5 57.5q-80 0 -121 -87t-41 -204q0 -205 94.5 -355.5t255.5 -150.5q39 0 82 7.5t111 29.5v-104q-84 -31 -150.5 -45.5t-152.5 -14.5q-229 0 -368.5 134.5t-139.5 414.5z" />
<glyph unicode="d" d="M82 481q0 256 85 386t271 130q102 0 152.5 -44t83.5 -109l4 569h248v-1413h-248v164q-39 -72 -102.5 -129.5t-167.5 -57.5q-172 0 -249 138.5t-77 365.5zM350 481q0 -141 34 -245.5t134 -104.5q94 0 121 100.5t27 249.5q0 166 -28 270.5t-124 104.5t-130 -111.5 t-34 -263.5z" />
<glyph unicode="e" horiz-adv-x="987" d="M78 532q0 217 102.5 341t331.5 124q199 0 297 -96t98 -270v-37h-581q0 -164 93 -327t279 -163q47 0 88 10.5t103 32.5v-102q-90 -39 -153.5 -53.5t-162.5 -14.5q-215 0 -355 133.5t-140 421.5zM326 696h342q0 72 -37 138.5t-127 66.5q-72 0 -118 -53t-60 -152z" />
<glyph unicode="f" horiz-adv-x="759" d="M45 856v119h174v80q0 168 79 274.5t312 106.5q88 0 128 -4.5t112 -18.5v-162q-45 18 -92 31.5t-109 13.5q-102 0 -142 -59t-40 -145v-117h272v-119h-272v-856h-248v856h-174z" />
<glyph unicode="g" d="M82 506q0 211 80 351t254 140q100 0 156.5 -50t101.5 -130l4 158h248v-1008q0 -203 -106.5 -315.5t-375.5 -112.5q-74 0 -135 8.5t-155 32.5v232q63 -49 146 -91.5t167 -42.5q129 0 170 79t41 239v145q-41 -68 -88 -104.5t-150 -36.5q-190 0 -274 132t-84 374zM350 489 q0 -141 34 -244.5t132 -103.5t124 95.5t26 246.5q0 160 -28 260.5t-124 100.5t-130 -105.5t-34 -249.5z" />
<glyph unicode="h" horiz-adv-x="1101" d="M139 0v1413h248v-657q47 94 121 167.5t203 73.5q133 0 189 -81.5t56 -243.5v-672h-247v608q0 88 -12.5 149.5t-94.5 61.5q-115 0 -165 -140t-50 -296v-383h-248z" />
<glyph unicode="i" horiz-adv-x="532" d="M141 0v975h248v-975h-248zM141 1188v225h248v-225h-248z" />
<glyph unicode="j" horiz-adv-x="532" d="M-150 -303q20 -8 50 -15.5t67 -7.5q98 0 139 54.5t41 156.5v1090h248v-1038q0 -213 -130 -305.5t-355 -92.5h-23q-12 0 -37 4v154zM147 1188v225h248v-225h-248z" />
<glyph unicode="k" horiz-adv-x="1026" d="M139 0v1413h248v-815l313 377h275l-375 -414l420 -561h-303l-326 473l-4 -473h-248z" />
<glyph unicode="l" horiz-adv-x="532" d="M141 0v1413h248v-1413h-248z" />
<glyph unicode="m" horiz-adv-x="1595" d="M139 0v975h248v-219q33 90 101.5 165.5t183.5 75.5q121 0 177 -70.5t69 -160.5q61 113 113 172t173 59q111 0 179.5 -73.5t68.5 -272.5v-651h-248v633q0 78 -20.5 132t-83.5 54q-84 0 -132 -99t-48 -282v-438h-248v608q0 88 -12.5 149.5t-94.5 61.5q-88 0 -133 -110.5 t-45 -325.5v-383h-248z" />
<glyph unicode="n" horiz-adv-x="1101" d="M139 0v975h248v-219q55 100 125 170.5t199 70.5q133 0 189 -81.5t56 -243.5v-672h-247v608q0 88 -12.5 149.5t-94.5 61.5q-115 0 -165 -140t-50 -296v-383h-248z" />
<glyph unicode="o" d="M82 487q0 268 116.5 389t333.5 121t333 -119.5t116 -390.5q0 -266 -115.5 -388t-333.5 -122q-219 0 -334.5 120t-115.5 390zM350 487q0 -203 33.5 -308t148.5 -105q88 0 134.5 78.5t46.5 334.5t-44 335t-137 79q-88 0 -135 -80t-47 -334z" />
<glyph unicode="p" d="M139 -438v1413h248v-164q41 72 104.5 129t163.5 57q172 0 249 -138t77 -365q0 -256 -85 -386.5t-271 -130.5q-100 0 -150.5 44.5t-83.5 109.5l-4 -569h-248zM399 494q0 -166 28 -270.5t124 -104.5t129 108.5t33 266.5q0 141 -34 245.5t-134 104.5q-92 0 -119 -100.5 t-27 -249.5z" />
<glyph unicode="q" d="M80 494q0 229 75.5 366t250.5 137q106 0 169.5 -58t96.5 -128l4 164h248v-1413h-248v569q-37 -68 -86 -111t-152 -43q-184 0 -271 133.5t-87 383.5zM348 494q0 -156 33 -265.5t131 -109.5q96 0 125 106.5t29 268.5q0 147 -28 248.5t-122 101.5q-98 0 -133 -106.5 t-35 -243.5z" />
<glyph unicode="r" horiz-adv-x="759" d="M139 0v975h248v-244q74 133 141.5 199.5t192.5 66.5v-256q-186 0 -260 -69.5t-74 -235.5v-436h-248z" />
<glyph unicode="s" horiz-adv-x="759" d="M70 709q0 121 87 204.5t261 83.5q72 0 141 -14q70 -18 86 -22v-203q-55 47 -113.5 79.5t-123.5 32.5q-45 0 -83 -22.5t-38 -69.5q0 -55 94 -120.5t182 -125.5q82 -68 114 -123t32 -139q0 -150 -104.5 -221.5t-270.5 -71.5q-78 0 -137.5 11.5t-118.5 27.5v222 q55 -47 118.5 -83t141.5 -36q68 0 106.5 26.5t38.5 71.5q0 59 -96 125t-184 127q-78 66 -105.5 117t-27.5 123z" />
<glyph unicode="t" horiz-adv-x="759" d="M41 856v119h182v229l248 150v-379h274v-119h-274v-577q0 -94 28.5 -127t98.5 -33q37 0 60.5 3t50.5 11v-143q-45 -4 -91.5 -8.5t-82.5 -4.5q-158 0 -235 56.5t-77 214.5v608h-182z" />
<glyph unicode="u" horiz-adv-x="1101" d="M131 303v672h248v-608q0 -100 28.5 -155.5t96.5 -55.5q104 0 150 139t46 297v383h248v-975h-248v219q-68 -133 -139.5 -187.5t-163.5 -54.5q-137 0 -201.5 83t-64.5 243z" />
<glyph unicode="v" horiz-adv-x="911" d="M2 975h252l225 -651l211 651h217l-338 -975h-207z" />
<glyph unicode="w" horiz-adv-x="1404" d="M68 975h227l158 -696l196 696h129l211 -682l144 682h204l-217 -975h-213l-198 594l-183 -594h-211z" />
<glyph unicode="x" horiz-adv-x="987" d="M0 0l362 508l-319 467h285l182 -273l188 273h252l-325 -457l362 -518h-285l-221 326l-227 -326h-254z" />
<glyph unicode="y" horiz-adv-x="911" d="M2 975h254l221 -666l232 666h200l-487 -1413h-201l146 424z" />
<glyph unicode="z" horiz-adv-x="796" d="M35 0v158l438 676h-412v141h680v-141l-438 -676h459v-158h-727z" />
<glyph unicode="{" horiz-adv-x="1138" d="M291 516v49q94 31 159.5 97.5t65.5 162.5q0 37 -11 89.5t-21.5 103.5t-17.5 99t-7 97q0 141 136 245t296 104v-52q-106 -25 -162.5 -104.5t-56.5 -173.5q0 -43 5 -91t10 -93t9 -89.5t4 -62.5q0 -150 -90 -224.5t-227 -131.5q131 -57 224 -136t93 -221q0 -31 -2 -55.5 t-10 -90t-12 -108.5t-4 -82q0 -98 55 -176t164 -102v-51q-160 0 -296 102.5t-136 245.5q0 57 3 82.5t17.5 95.5t25.5 126t11 85q0 92 -64.5 160.5t-160.5 99.5z" />
<glyph unicode="|" horiz-adv-x="681" d="M291 -377v2083h100v-2083h-100z" />
<glyph unicode="}" horiz-adv-x="1138" d="M246 -430q106 25 162.5 104.5t56.5 173.5q0 43 -5 91.5t-10.5 93.5t-9.5 89t-4 62q0 143 91 220t227 137q-133 55 -225.5 132t-92.5 224q0 31 2 55.5t10.5 90t12.5 108.5t4 82q0 98 -55.5 176t-163.5 102v52q160 0 296 -102.5t136 -246.5q0 -57 -9.5 -111t-17.5 -95 t-19 -97.5t-11 -85.5q0 -98 63.5 -163.5t161.5 -96.5v-49q-92 -29 -158.5 -99.5t-66.5 -160.5q0 -37 11 -89t21.5 -103.5t17.5 -99.5t7 -97q0 -141 -136 -244.5t-296 -103.5v51z" />
<glyph unicode="~" horiz-adv-x="1253" d="M135 348v184q0 96 40 151.5t136 55.5q47 0 76 -10t105 -47l311 -156q74 -37 104 -37q23 0 31 21.5t8 89.5v94h172v-164q0 -113 -37 -169t-149 -56q-51 0 -84 14.5t-105 49.5l-305 151q-70 35 -92 35q-39 0 -39 -92v-115h-172z" />
<glyph unicode="&#xa1;" horiz-adv-x="645" d="M106 -279l50 994h182l49 -994h-281zM106 852v283h281v-283h-281z" />
<glyph unicode="&#xa2;" horiz-adv-x="987" d="M68 528q0 223 106.5 346t286.5 123v170h102v-170q158 -18 257.5 -106t99.5 -250h-234q0 100 -25.5 166.5t-97.5 93.5v-801q27 -6 51.5 -10t51.5 -4q66 0 122 13.5t103 35.5v-96q-86 -33 -166 -47.5t-162 -14.5v-186h-102v186q-174 31 -283.5 158t-109.5 393zM326 557 q0 -154 36.5 -244t98.5 -157v745q-72 -27 -103.5 -110.5t-31.5 -233.5z" />
<glyph unicode="&#xa3;" d="M66 612v119h151v291q0 174 104.5 258t311.5 84q217 0 324.5 -92t121.5 -225h-280q0 115 -37 151.5t-115 36.5q-106 0 -139 -66.5t-33 -248.5v-189h291v-119h-291v-430h557v-182h-815v612h-151z" />
<glyph unicode="&#xa4;" horiz-adv-x="1024" d="M27 1145l65 63l139 -139q59 43 135 68.5t146 25.5q76 0 146.5 -23.5t134.5 -70.5l139 139l65 -63l-141 -144q49 -51 72.5 -127.5t23.5 -154.5t-23.5 -151.5t-70.5 -127.5l137 -137l-61 -61l-135 135q-66 -49 -136.5 -72.5t-150.5 -23.5q-78 0 -152.5 25.5t-134.5 70.5 l-135 -135l-61 61l137 137q-47 53 -70.5 126t-23.5 153q0 76 24.5 149.5t71.5 132.5zM156 719q0 -147 105.5 -250.5t250.5 -103.5t250.5 103t105.5 251q0 147 -104.5 253.5t-251.5 106.5t-251.5 -106.5t-104.5 -253.5z" />
<glyph unicode="&#xa5;" horiz-adv-x="1101" d="M-35 1413h309l297 -518l308 518h258l-463 -751h217v-119h-217v-105h217v-119h-217v-319h-268v319h-213v119h213v105h-213v119h213z" />
<glyph unicode="&#xa6;" horiz-adv-x="606" d="M205 -279v736h198v-736h-198zM205 823v736h198v-736h-198z" />
<glyph unicode="&#xa7;" horiz-adv-x="1026" d="M63 725q0 90 39 143.5t99 102.5q-33 33 -58.5 78t-25.5 114q0 133 116.5 203t280.5 70q98 0 195.5 -19.5t162.5 -34.5v-204q-63 41 -157 78.5t-191 37.5q-72 0 -123 -25.5t-51 -78.5q0 -61 220.5 -156.5t274.5 -129.5t85 -81t31 -118q0 -82 -41 -138.5t-95 -97.5 q41 -41 68 -86t27 -117q0 -150 -128 -219.5t-305 -69.5q-113 0 -190.5 14.5t-155.5 35.5v223q98 -70 185.5 -100.5t177.5 -30.5q80 0 131 25.5t51 88.5q0 61 -134 120t-250 111t-177.5 103t-61.5 158zM240 815q0 -59 102 -107.5t145 -66.5l250 -115q29 37 38 51.5t9 40.5 q0 80 -136 138.5t-193 83.5l-158 69q-29 -25 -43 -50t-14 -44z" />
<glyph unicode="&#xa8;" horiz-adv-x="686" d="M6 1167v228h252v-228h-252zM428 1167v228h252v-228h-252z" />
<glyph unicode="&#xa9;" horiz-adv-x="1024" d="M31 954q0 199 141 340.5t340 141.5t340 -141.5t141 -340.5q0 -201 -140 -341t-341 -140t-341 140t-140 341zM102 954q0 -170 120 -289.5t290 -119.5t290 119.5t120 289.5t-120 290t-290 120t-290 -120t-120 -290zM256 963q0 115 84 194.5t197 79.5q74 0 110.5 -20.5 t83.5 -59.5l-53 -67q-29 27 -61.5 45t-79.5 18q-74 0 -132.5 -51t-58.5 -139t57.5 -139.5t124.5 -51.5q57 0 85 15.5t65 46.5l53 -66q-43 -41 -92 -60.5t-102 -19.5q-113 0 -197 80t-84 195z" />
<glyph unicode="&#xaa;" horiz-adv-x="608" d="M82 711q0 106 100.5 143t206.5 37v55q0 76 -11 110t-59 34q-43 0 -59 -32t-16 -89h-144q0 174 222 174q129 0 165.5 -54.5t36.5 -158.5v-344h-135v71q-27 -43 -68.5 -62.5t-89.5 -19.5q-66 0 -107.5 38t-41.5 98zM223 729q1 -74 64 -74q27 0 57.5 23.5t35.5 46.5t7 64.5 t2 48.5q-88 -8 -127 -35t-39 -74z" />
<glyph unicode="&#xab;" horiz-adv-x="835" d="M49 516l174 395h201l-133 -395l133 -395h-201zM389 516l174 395h201l-133 -395l133 -395h-201z" />
<glyph unicode="&#xac;" horiz-adv-x="1214" d="M119 606v187h975v-541h-201v354h-774z" />
<glyph unicode="&#xad;" horiz-adv-x="948" d="M94 418v219h762v-219h-762z" />
<glyph unicode="&#xae;" horiz-adv-x="1024" d="M31 954q0 199 141 340.5t340 141.5t340 -141.5t141 -340.5q0 -201 -140 -341t-341 -140t-341 140t-140 341zM102 954q0 -170 120 -289.5t290 -119.5t290 119.5t120 289.5t-120 290t-290 120t-290 -120t-120 -290zM330 713v508h170q92 0 149.5 -33t57.5 -131 q0 -59 -21.5 -81t-67.5 -44l95 -219h-103l-78 205h-110v-205h-92zM422 999h110q37 0 57.5 15.5t20.5 50.5q0 68 -86 68h-102v-134z" />
<glyph unicode="&#xb0;" horiz-adv-x="720" d="M123 1083q0 98 69.5 168t167.5 70t168 -67.5t70 -170.5q0 -98 -69.5 -167.5t-168.5 -69.5q-98 0 -167.5 69.5t-69.5 167.5zM240 1083q0 -49 35.5 -84.5t84.5 -35.5q51 0 86 34.5t35 85.5t-34.5 86t-86.5 35q-49 0 -84.5 -35.5t-35.5 -85.5z" />
<glyph unicode="&#xb1;" horiz-adv-x="1214" d="M121 -96h975v-187h-975v187zM121 428v186h387v383h201v-383h387v-186h-387v-428h-201v428h-387z" />
<glyph unicode="&#xb2;" horiz-adv-x="796" d="M78 414v123q184 156 299 313.5t115 263.5q0 51 -32 87t-87 36q-59 0 -85 -45t-26 -96h-184q10 90 78.5 157.5t220.5 67.5q123 0 210 -60.5t87 -181.5q0 -129 -103.5 -262t-308.5 -276l414 -4v-123h-598z" />
<glyph unicode="&#xb3;" horiz-adv-x="796" d="M63 612h199q0 -66 21.5 -97.5t89.5 -31.5q66 0 94.5 44t28.5 118q0 123 -40 157t-137 34v92q78 0 119 27.5t41 127.5q0 70 -23.5 112t-86.5 42q-57 0 -77 -35t-20 -90h-188q0 88 80 148.5t217 60.5q129 0 205 -56.5t76 -174.5q0 -78 -33 -131.5t-117 -73.5 q76 -18 121 -70.5t45 -155.5q0 -137 -78 -198.5t-231 -61.5q-158 0 -232 62.5t-74 150.5z" />
<glyph unicode="&#xb4;" horiz-adv-x="686" d="M248 1145l94 342h246l-170 -342h-170z" />
<glyph unicode="&#xb5;" horiz-adv-x="1101" d="M143 -438v1413h248v-553q0 -133 29 -199.5t112 -66.5q100 0 133 122.5t33 452.5v244h248v-656q0 -123 16.5 -168t73.5 -45l45 7v-103q-31 -12 -67.5 -22.5t-67.5 -10.5q-119 0 -180 58.5t-61 177.5q-18 -96 -67.5 -166t-152.5 -70q-41 0 -64.5 9.5t-49.5 27.5v-452h-228z " />
<glyph unicode="&#xb6;" horiz-adv-x="1138" d="M215 922q0 246 183.5 368.5t428.5 122.5h236v-76h-119v-1775h-76v1775h-125v-1775h-75v895q-170 20 -311.5 130.5t-141.5 334.5z" />
<glyph unicode="&#xb8;" horiz-adv-x="686" d="M238 -354q37 -25 62.5 -39.5t74.5 -14.5q43 0 65.5 28t22.5 63q0 61 -46 84.5t-100 23.5l-53 -6l58 248h114l-39 -168l25 4q80 0 142.5 -42t62.5 -144q0 -92 -60.5 -150.5t-175.5 -58.5q-51 0 -85 12t-68 31v129z" />
<glyph unicode="&#xb9;" horiz-adv-x="796" d="M170 1061v117l199 120h139v-884h-174v745z" />
<glyph unicode="&#xba;" horiz-adv-x="608" d="M53 860q0 150 58.5 216.5t191.5 66.5q123 0 187.5 -69.5t64.5 -213.5q0 -150 -59.5 -217.5t-192.5 -67.5q-131 0 -190.5 67.5t-59.5 217.5zM203 860q0 -119 17 -175t83 -56q63 0 83 58t20 173q0 111 -19.5 170.5t-83.5 59.5q-61 0 -80.5 -60.5t-19.5 -169.5z" />
<glyph unicode="&#xbb;" horiz-adv-x="835" d="M72 121l131 395l-131 395h198l176 -395l-176 -395h-198zM412 121l131 395l-131 395h200l174 -395l-174 -395h-200z" />
<glyph unicode="&#xbc;" horiz-adv-x="1822" d="M104 1061v117l199 120h139v-884h-174v745zM504 0l475 1298h156l-476 -1298h-155zM1008 221v113l374 553h185v-543h151v-123h-151v-221h-156v221h-403zM1163 344h248v391z" />
<glyph unicode="&#xbd;" horiz-adv-x="1822" d="M147 1061v117l199 120h139v-884h-174v745zM524 0l475 1298h156l-475 -1298h-156zM1079 0v123q186 158 299 311.5t113 259.5q0 51 -32 87t-85 36q-59 0 -84.5 -45t-25.5 -96h-185q10 90 79 157.5t220 67.5q123 0 209 -59.5t86 -182.5q0 -160 -110.5 -272.5t-298.5 -259.5 l413 -4v-123h-598z" />
<glyph unicode="&#xbe;" horiz-adv-x="1822" d="M63 612h199q0 -66 21.5 -97.5t89.5 -31.5q66 0 94.5 44t28.5 118q0 127 -39 161t-138 34v92q102 0 131 37t29 116q0 68 -23.5 110t-86.5 42q-57 0 -77 -35t-20 -90h-188q0 86 81 147.5t216 61.5q129 0 205 -56.5t76 -174.5q0 -96 -43.5 -141.5t-106.5 -59.5 q78 -18 122 -70.5t44 -159.5q0 -137 -78 -198.5t-231 -61.5q-158 0 -232 62.5t-74 150.5zM616 0l476 1298h157l-477 -1298h-156zM1073 221v113l377 553h184v-543h150v-123h-150v-221h-155v221h-406zM1229 344h250v391z" />
<glyph unicode="&#xbf;" horiz-adv-x="948" d="M70 29q0 150 132 263.5t212 184t80 197.5v41h186v-74q0 -186 -88 -277.5t-153.5 -161t-83 -111.5t-17.5 -83q0 -70 52 -111.5t140 -41.5t163 33.5t143 78.5v-237q-63 -10 -129 -20.5t-154 -10.5q-186 0 -334.5 66.5t-148.5 263.5zM444 852v283h283v-283h-283z" />
<glyph unicode="&#xc0;" horiz-adv-x="1253" d="M0 0l487 1413h275l491 -1413h-284l-123 401h-481l-127 -401h-238zM383 1925h248l92 -342h-170zM412 551h389l-191 625z" />
<glyph unicode="&#xc1;" horiz-adv-x="1253" d="M0 0l487 1413h275l491 -1413h-284l-123 401h-481l-127 -401h-238zM412 551h389l-191 625zM533 1583l94 342h246l-170 -342h-170z" />
<glyph unicode="&#xc2;" horiz-adv-x="1253" d="M0 0l487 1413h275l491 -1413h-284l-123 401h-481l-127 -401h-238zM318 1583l198 305h222l198 -305h-166l-143 172l-143 -172h-166zM412 551h389l-191 625z" />
<glyph unicode="&#xc3;" horiz-adv-x="1253" d="M0 0l487 1413h275l491 -1413h-284l-123 401h-481l-127 -401h-238zM344 1601q0 139 23.5 210t114.5 71q37 0 70.5 -18.5t74.5 -46t77 -50t48 -22.5q20 0 28.5 26.5t8.5 91.5h121q0 -162 -26 -221t-114 -59q-55 0 -125.5 40t-144.5 83q-35 0 -35 -105h-121zM412 551h389 l-191 625z" />
<glyph unicode="&#xc4;" horiz-adv-x="1253" d="M0 0l487 1413h275l491 -1413h-284l-123 401h-481l-127 -401h-238zM291 1605v228h252v-228h-252zM412 551h389l-191 625zM713 1605v228h252v-228h-252z" />
<glyph unicode="&#xc5;" horiz-adv-x="1253" d="M0 0l487 1413h275l491 -1413h-284l-123 401h-481l-127 -401h-238zM412 551h389l-191 625zM422 1788q0 88 61.5 147t145.5 59q82 0 143.5 -61t61.5 -145q0 -86 -59.5 -145.5t-145.5 -59.5q-84 0 -145.5 59.5t-61.5 145.5zM539 1788q0 -35 26.5 -61.5t63.5 -26.5 q35 0 61.5 26.5t26.5 61.5q0 37 -26.5 63.5t-61.5 26.5q-37 0 -63.5 -27t-26.5 -63z" />
<glyph unicode="&#xc6;" horiz-adv-x="1783" d="M6 0l809 1413h877v-162h-549l51 -518h483v-162h-467l39 -401h465v-170h-706l-50 571h-395l-303 -571h-254zM649 733h295l-39 479z" />
<glyph unicode="&#xc7;" horiz-adv-x="1177" d="M92 733q0 311 137.5 507t440.5 196q244 0 369.5 -108.5t125.5 -299.5h-305q0 106 -46 189t-161 83q-156 0 -217 -163.5t-61 -358.5q0 -322 96 -476.5t287 -154.5q135 0 213 47.5t137 92.5v-221q-102 -39 -194.5 -64t-204.5 -25q-313 0 -465 214.5t-152 541.5zM484 -354 q37 -25 62.5 -39.5t74.5 -14.5q43 0 65.5 28t22.5 63q0 61 -46 84.5t-100 23.5l-53 -6l58 248h114l-39 -168l25 4q80 0 142.5 -42t62.5 -144q0 -92 -60.5 -150.5t-175.5 -58.5q-51 0 -85 12t-68 31v129z" />
<glyph unicode="&#xc8;" d="M150 0v1413h825v-162h-557v-434h528v-162h-528v-485h575v-170h-843zM317 1925h248l92 -342h-170z" />
<glyph unicode="&#xc9;" d="M150 0v1413h825v-162h-557v-434h528v-162h-528v-485h575v-170h-843zM457 1583l94 342h246l-170 -342h-170z" />
<glyph unicode="&#xca;" d="M150 0v1413h825v-162h-557v-434h528v-162h-528v-485h575v-170h-843zM242 1583l198 305h222l198 -305h-166l-143 172l-143 -172h-166z" />
<glyph unicode="&#xcb;" d="M150 0v1413h825v-162h-557v-434h528v-162h-528v-485h575v-170h-843zM215 1605v228h252v-228h-252zM637 1605v228h252v-228h-252z" />
<glyph unicode="&#xcc;" horiz-adv-x="569" d="M41 1925h248l92 -342h-170zM150 0v1413h268v-1413h-268z" />
<glyph unicode="&#xcd;" horiz-adv-x="569" d="M150 0v1413h268v-1413h-268zM191 1583l94 342h246l-170 -342h-170z" />
<glyph unicode="&#xce;" horiz-adv-x="569" d="M-45 1583l198 305h222l198 -305h-166l-143 172l-143 -172h-166zM150 0v1413h268v-1413h-268z" />
<glyph unicode="&#xcf;" horiz-adv-x="569" d="M-72 1605v228h252v-228h-252zM150 0v1413h268v-1413h-268zM350 1605v228h252v-228h-252z" />
<glyph unicode="&#xd0;" horiz-adv-x="1253" d="M0 672v129h150v612h378q295 0 464 -142.5t169 -543.5q0 -307 -89 -466t-225 -210t-319 -51h-378v672h-150zM418 170h110q211 0 281 127t70 430q0 287 -65.5 405.5t-285.5 118.5h-110v-450h227v-129h-227v-502z" />
<glyph unicode="&#xd1;" horiz-adv-x="1366" d="M152 0v1413h292l547 -1048l4 1048h219v-1413h-266l-573 1100l-4 -1100h-219zM419 1601q0 139 23.5 210t114.5 71q37 0 70.5 -18.5t74.5 -46t77 -50t48 -22.5q20 0 28.5 26.5t8.5 91.5h121q0 -162 -26 -221t-114 -59q-55 0 -125.5 40t-144.5 83q-35 0 -35 -105h-121z" />
<glyph unicode="&#xd2;" horiz-adv-x="1366" d="M94 707q0 342 143.5 535.5t446.5 193.5q299 0 444.5 -194.5t145.5 -534.5t-145.5 -535t-444.5 -195t-444.5 195t-145.5 535zM377 707q0 -281 73.5 -437.5t233.5 -156.5q162 0 234.5 154.5t72.5 439.5q0 281 -73.5 437t-233.5 156q-162 0 -234.5 -154.5t-72.5 -438.5z M438 1925h248l92 -342h-170z" />
<glyph unicode="&#xd3;" horiz-adv-x="1366" d="M94 707q0 342 143.5 535.5t446.5 193.5q299 0 444.5 -194.5t145.5 -534.5t-145.5 -535t-444.5 -195t-444.5 195t-145.5 535zM377 707q0 -281 73.5 -437.5t233.5 -156.5q162 0 234.5 154.5t72.5 439.5q0 281 -73.5 437t-233.5 156q-162 0 -234.5 -154.5t-72.5 -438.5z M588 1583l94 342h246l-170 -342h-170z" />
<glyph unicode="&#xd4;" horiz-adv-x="1366" d="M94 707q0 342 143.5 535.5t446.5 193.5q299 0 444.5 -194.5t145.5 -534.5t-145.5 -535t-444.5 -195t-444.5 195t-145.5 535zM373 1583l198 305h222l198 -305h-166l-143 172l-143 -172h-166zM377 707q0 -281 73.5 -437.5t233.5 -156.5q162 0 234.5 154.5t72.5 439.5 q0 281 -73.5 437t-233.5 156q-162 0 -234.5 -154.5t-72.5 -438.5z" />
<glyph unicode="&#xd5;" horiz-adv-x="1366" d="M94 707q0 342 143.5 535.5t446.5 193.5q299 0 444.5 -194.5t145.5 -534.5t-145.5 -535t-444.5 -195t-444.5 195t-145.5 535zM377 707q0 -281 73.5 -437.5t233.5 -156.5q162 0 234.5 154.5t72.5 439.5q0 281 -73.5 437t-233.5 156q-162 0 -234.5 -154.5t-72.5 -438.5z M399 1601q0 139 23.5 210t114.5 71q37 0 70.5 -18.5t74.5 -46t77 -50t48 -22.5q20 0 28.5 26.5t8.5 91.5h121q0 -162 -26 -221t-114 -59q-55 0 -125.5 40t-144.5 83q-35 0 -35 -105h-121z" />
<glyph unicode="&#xd6;" horiz-adv-x="1366" d="M94 707q0 342 143.5 535.5t446.5 193.5q299 0 444.5 -194.5t145.5 -534.5t-145.5 -535t-444.5 -195t-444.5 195t-145.5 535zM346 1605v228h252v-228h-252zM377 707q0 -281 73.5 -437.5t233.5 -156.5q162 0 234.5 154.5t72.5 439.5q0 281 -73.5 437t-233.5 156 q-162 0 -234.5 -154.5t-72.5 -438.5zM768 1605v228h252v-228h-252z" />
<glyph unicode="&#xd7;" horiz-adv-x="1214" d="M123 145l340 361l-340 344l133 147l350 -350l344 350l140 -147l-347 -344l347 -361l-140 -145l-344 358l-350 -358z" />
<glyph unicode="&#xd8;" horiz-adv-x="1366" d="M94 707q0 342 143.5 535.5t446.5 193.5q94 0 172 -20.5t143 -59.5l105 157l104 -77l-106 -164q88 -96 130 -236.5t42 -328.5q0 -340 -145.5 -535t-444.5 -195q-113 0 -200 27t-156 78l-109 -166l-100 84l114 178q-68 92 -103.5 229.5t-35.5 299.5zM377 707 q0 -70 6 -142.5t16 -132.5l492 756q-74 113 -207 112q-162 0 -234.5 -154.5t-72.5 -438.5zM449 270q78 -158 235 -157q162 0 234.5 154.5t72.5 439.5q0 201 -39 335z" />
<glyph unicode="&#xd9;" horiz-adv-x="1290" d="M135 481v932h268v-932q0 -184 48.5 -276t191.5 -92q152 0 199 88t47 280v932h268v-932q0 -233 -101.5 -368.5t-412.5 -135.5q-307 0 -407.5 135.5t-100.5 368.5zM401 1925h248l92 -342h-170z" />
<glyph unicode="&#xda;" horiz-adv-x="1290" d="M135 481v932h268v-932q0 -184 48.5 -276t191.5 -92q152 0 199 88t47 280v932h268v-932q0 -233 -101.5 -368.5t-412.5 -135.5q-307 0 -407.5 135.5t-100.5 368.5zM551 1583l94 342h246l-170 -342h-170z" />
<glyph unicode="&#xdb;" horiz-adv-x="1290" d="M135 481v932h268v-932q0 -184 48.5 -276t191.5 -92q152 0 199 88t47 280v932h268v-932q0 -233 -101.5 -368.5t-412.5 -135.5q-307 0 -407.5 135.5t-100.5 368.5zM336 1583l198 305h222l198 -305h-166l-143 172l-143 -172h-166z" />
<glyph unicode="&#xdc;" horiz-adv-x="1290" d="M135 481v932h268v-932q0 -184 48.5 -276t191.5 -92q152 0 199 88t47 280v932h268v-932q0 -233 -101.5 -368.5t-412.5 -135.5q-307 0 -407.5 135.5t-100.5 368.5zM289 1605v228h252v-228h-252zM711 1605v228h252v-228h-252z" />
<glyph unicode="&#xdd;" horiz-adv-x="1101" d="M-35 1413h309l297 -518l308 518h258l-463 -751v-662h-268v662zM457 1583l94 342h246l-170 -342h-170z" />
<glyph unicode="&#xde;" horiz-adv-x="1253" d="M143 0v1413h269v-248h307q233 0 342.5 -84t109.5 -344q0 -256 -111.5 -345t-340.5 -89h-307v-303h-269zM412 465h209q139 0 210.5 56.5t71.5 215.5q0 162 -70.5 214.5t-211.5 52.5h-209v-539z" />
<glyph unicode="&#xdf;" horiz-adv-x="1138" d="M127 0v901q0 254 78 394.5t348 140.5q184 0 303 -95.5t119 -275.5q0 -141 -68.5 -204.5t-173.5 -94.5q139 -27 225 -99.5t86 -281.5q0 -229 -114.5 -318.5t-296.5 -89.5q-61 0 -99 5.5t-81 17.5v117q35 -18 66.5 -27.5t58.5 -9.5q119 0 158.5 81t39.5 222 q0 207 -56 269.5t-200 62.5v96q104 0 145.5 54.5t41.5 189.5q0 121 -35 202.5t-121 81.5q-115 0 -145.5 -118.5t-30.5 -327.5v-893h-248z" />
<glyph unicode="&#xe0;" horiz-adv-x="1024" d="M90 221q0 195 182.5 260.5t370.5 65.5v164q0 106 -29.5 148t-93.5 42q-66 0 -98.5 -51t-32.5 -166h-264q0 313 397 313q213 0 291 -87t78 -251v-659h-248v129q-47 -72 -126 -112t-155 -40q-119 0 -195.5 69t-76.5 175zM299 1487h248l92 -342h-170zM346 256q0 -61 30 -99 t83 -38q84 0 134 75.5t50 184.5v72q-117 -12 -207 -51.5t-90 -143.5z" />
<glyph unicode="&#xe1;" horiz-adv-x="1024" d="M90 221q0 195 182.5 260.5t370.5 65.5v164q0 106 -29.5 148t-93.5 42q-66 0 -98.5 -51t-32.5 -166h-264q0 313 397 313q213 0 291 -87t78 -251v-659h-248v129q-47 -72 -126 -112t-155 -40q-119 0 -195.5 69t-76.5 175zM346 256q0 -61 30 -99t83 -38q84 0 134 75.5 t50 184.5v72q-117 -12 -207 -51.5t-90 -143.5zM418 1145l94 342h246l-170 -342h-170z" />
<glyph unicode="&#xe2;" horiz-adv-x="1024" d="M90 221q0 195 182.5 260.5t370.5 65.5v164q0 106 -29.5 148t-93.5 42q-66 0 -98.5 -51t-32.5 -166h-264q0 313 397 313q213 0 291 -87t78 -251v-659h-248v129q-47 -72 -126 -112t-155 -40q-119 0 -195.5 69t-76.5 175zM203 1145l198 305h222l198 -305h-166l-143 172 l-143 -172h-166zM346 256q0 -61 30 -99t83 -38q84 0 134 75.5t50 184.5v72q-117 -12 -207 -51.5t-90 -143.5z" />
<glyph unicode="&#xe3;" horiz-adv-x="1024" d="M90 221q0 195 182.5 260.5t370.5 65.5v164q0 106 -29.5 148t-93.5 42q-66 0 -98.5 -51t-32.5 -166h-264q0 313 397 313q213 0 291 -87t78 -251v-659h-248v129q-47 -72 -126 -112t-155 -40q-119 0 -195.5 69t-76.5 175zM229 1163q0 139 23.5 210t114.5 71q37 0 70.5 -18.5 t74.5 -46t77 -50t48 -22.5q20 0 28.5 26.5t8.5 91.5h121q0 -162 -26 -221t-114 -59q-55 0 -125.5 40t-144.5 83q-35 0 -35 -105h-121zM346 256q0 -61 30 -99t83 -38q84 0 134 75.5t50 184.5v72q-117 -12 -207 -51.5t-90 -143.5z" />
<glyph unicode="&#xe4;" horiz-adv-x="1024" d="M90 221q0 195 182.5 260.5t370.5 65.5v164q0 106 -29.5 148t-93.5 42q-66 0 -98.5 -51t-32.5 -166h-264q0 313 397 313q213 0 291 -87t78 -251v-659h-248v129q-47 -72 -126 -112t-155 -40q-119 0 -195.5 69t-76.5 175zM176 1167v228h252v-228h-252zM346 256q0 -61 30 -99 t83 -38q84 0 134 75.5t50 184.5v72q-117 -12 -207 -51.5t-90 -143.5zM598 1167v228h252v-228h-252z" />
<glyph unicode="&#xe5;" horiz-adv-x="1024" d="M90 221q0 195 182.5 260.5t370.5 65.5v164q0 106 -29.5 148t-93.5 42q-66 0 -98.5 -51t-32.5 -166h-264q0 313 397 313q213 0 291 -87t78 -251v-659h-248v129q-47 -72 -126 -112t-155 -40q-119 0 -195.5 69t-76.5 175zM307 1350q0 88 61.5 147t145.5 59q82 0 143.5 -61 t61.5 -145q0 -86 -59.5 -145.5t-145.5 -59.5q-84 0 -145.5 59.5t-61.5 145.5zM346 256q0 -61 30 -99t83 -38q84 0 134 75.5t50 184.5v72q-117 -12 -207 -51.5t-90 -143.5zM424 1350q0 -35 26.5 -61.5t63.5 -26.5q35 0 61.5 26.5t26.5 61.5q0 37 -26.5 63.5t-61.5 26.5 q-37 0 -63.5 -27t-26.5 -63z" />
<glyph unicode="&#xe6;" horiz-adv-x="1519" d="M90 279q0 180 156.5 254.5t371.5 74.5h37q0 147 -38.5 220t-116.5 73q-68 0 -89.5 -48t-21.5 -132h-264q0 133 100.5 204.5t268.5 71.5q123 0 178 -39.5t84 -111.5q43 63 110.5 107t190.5 44q240 0 311.5 -143t71.5 -348h-557q0 -168 103.5 -285t262.5 -117q61 0 96 11.5 t80 36.5v-113q-53 -25 -146 -43.5t-165 -18.5q-127 0 -215 50.5t-143 113.5q-66 -82 -131.5 -123t-200.5 -41q-147 0 -240.5 83t-93.5 219zM346 279q0 -70 34 -122.5t107 -52.5q98 0 133 84t35 205v113h-22q-127 0 -207 -55.5t-80 -171.5zM883 608h319v62q0 102 -31.5 166.5 t-111.5 64.5q-90 0 -133 -101.5t-43 -191.5z" />
<glyph unicode="&#xe7;" horiz-adv-x="911" d="M78 526q0 219 108.5 345t331.5 126q209 0 293 -88t84 -264h-264q0 141 -23.5 198.5t-99.5 57.5q-80 0 -121 -87t-41 -204q0 -205 94.5 -355.5t255.5 -150.5q39 0 82 7.5t111 29.5v-104q-84 -31 -150.5 -45.5t-152.5 -14.5q-229 0 -368.5 134.5t-139.5 414.5zM351 -354 q37 -25 62.5 -39.5t74.5 -14.5q43 0 65.5 28t22.5 63q0 61 -46 84.5t-100 23.5l-53 -6l58 248h114l-39 -168l25 4q80 0 142.5 -42t62.5 -144q0 -92 -60.5 -150.5t-175.5 -58.5q-51 0 -85 12t-68 31v129z" />
<glyph unicode="&#xe8;" horiz-adv-x="987" d="M78 532q0 217 102.5 341t331.5 124q199 0 297 -96t98 -270v-37h-581q0 -164 93 -327t279 -163q47 0 88 10.5t103 32.5v-102q-90 -39 -153.5 -53.5t-162.5 -14.5q-215 0 -355 133.5t-140 421.5zM250 1487h248l92 -342h-170zM326 696h342q0 72 -37 138.5t-127 66.5 q-72 0 -118 -53t-60 -152z" />
<glyph unicode="&#xe9;" horiz-adv-x="987" d="M78 532q0 217 102.5 341t331.5 124q199 0 297 -96t98 -270v-37h-581q0 -164 93 -327t279 -163q47 0 88 10.5t103 32.5v-102q-90 -39 -153.5 -53.5t-162.5 -14.5q-215 0 -355 133.5t-140 421.5zM326 696h342q0 72 -37 138.5t-127 66.5q-72 0 -118 -53t-60 -152zM400 1145 l94 342h246l-170 -342h-170z" />
<glyph unicode="&#xea;" horiz-adv-x="987" d="M78 532q0 217 102.5 341t331.5 124q199 0 297 -96t98 -270v-37h-581q0 -164 93 -327t279 -163q47 0 88 10.5t103 32.5v-102q-90 -39 -153.5 -53.5t-162.5 -14.5q-215 0 -355 133.5t-140 421.5zM185 1145l198 305h222l198 -305h-166l-143 172l-143 -172h-166zM326 696h342 q0 72 -37 138.5t-127 66.5q-72 0 -118 -53t-60 -152z" />
<glyph unicode="&#xeb;" horiz-adv-x="987" d="M78 532q0 217 102.5 341t331.5 124q199 0 297 -96t98 -270v-37h-581q0 -164 93 -327t279 -163q47 0 88 10.5t103 32.5v-102q-90 -39 -153.5 -53.5t-162.5 -14.5q-215 0 -355 133.5t-140 421.5zM158 1167v228h252v-228h-252zM326 696h342q0 72 -37 138.5t-127 66.5 q-72 0 -118 -53t-60 -152zM580 1167v228h252v-228h-252z" />
<glyph unicode="&#xec;" horiz-adv-x="532" d="M22 1487h248l92 -342h-170zM141 0v975h248v-975h-248z" />
<glyph unicode="&#xed;" horiz-adv-x="532" d="M141 0v975h248v-975h-248zM172 1145l94 342h246l-170 -342h-170z" />
<glyph unicode="&#xee;" horiz-adv-x="532" d="M-43 1145l198 305h222l198 -305h-166l-143 172l-143 -172h-166zM141 0v975h248v-975h-248z" />
<glyph unicode="&#xef;" horiz-adv-x="532" d="M-70 1167v228h252v-228h-252zM141 0v975h248v-975h-248zM352 1167v228h252v-228h-252z" />
<glyph unicode="&#xf1;" horiz-adv-x="1101" d="M139 0v975h248v-219q55 100 125 170.5t199 70.5q133 0 189 -81.5t56 -243.5v-672h-247v608q0 88 -12.5 149.5t-94.5 61.5q-115 0 -165 -140t-50 -296v-383h-248zM268 1163q0 139 23.5 210t114.5 71q37 0 70.5 -18.5t74.5 -46t77 -50t48 -22.5q20 0 28.5 26.5t8.5 91.5 h121q0 -162 -26 -221t-114 -59q-55 0 -125.5 40t-144.5 83q-35 0 -35 -105h-121z" />
<glyph unicode="&#xf2;" d="M82 487q0 268 116.5 389t333.5 121t333 -119.5t116 -390.5q0 -266 -115.5 -388t-333.5 -122q-219 0 -334.5 120t-115.5 390zM286 1487h248l92 -342h-170zM350 487q0 -203 33.5 -308t148.5 -105q88 0 134.5 78.5t46.5 334.5t-44 335t-137 79q-88 0 -135 -80t-47 -334z" />
<glyph unicode="&#xf3;" d="M82 487q0 268 116.5 389t333.5 121t333 -119.5t116 -390.5q0 -266 -115.5 -388t-333.5 -122q-219 0 -334.5 120t-115.5 390zM350 487q0 -203 33.5 -308t148.5 -105q88 0 134.5 78.5t46.5 334.5t-44 335t-137 79q-88 0 -135 -80t-47 -334zM436 1145l94 342h246l-170 -342 h-170z" />
<glyph unicode="&#xf4;" d="M82 487q0 268 116.5 389t333.5 121t333 -119.5t116 -390.5q0 -266 -115.5 -388t-333.5 -122q-219 0 -334.5 120t-115.5 390zM221 1145l198 305h222l198 -305h-166l-143 172l-143 -172h-166zM350 487q0 -203 33.5 -308t148.5 -105q88 0 134.5 78.5t46.5 334.5t-44 335 t-137 79q-88 0 -135 -80t-47 -334z" />
<glyph unicode="&#xf5;" d="M82 487q0 268 116.5 389t333.5 121t333 -119.5t116 -390.5q0 -266 -115.5 -388t-333.5 -122q-219 0 -334.5 120t-115.5 390zM247 1163q0 139 23.5 210t114.5 71q37 0 70.5 -18.5t74.5 -46t77 -50t48 -22.5q20 0 28.5 26.5t8.5 91.5h121q0 -162 -26 -221t-114 -59 q-55 0 -125.5 40t-144.5 83q-35 0 -35 -105h-121zM350 487q0 -203 33.5 -308t148.5 -105q88 0 134.5 78.5t46.5 334.5t-44 335t-137 79q-88 0 -135 -80t-47 -334z" />
<glyph unicode="&#xf6;" d="M82 487q0 268 116.5 389t333.5 121t333 -119.5t116 -390.5q0 -266 -115.5 -388t-333.5 -122q-219 0 -334.5 120t-115.5 390zM194 1167v228h252v-228h-252zM350 487q0 -203 33.5 -308t148.5 -105q88 0 134.5 78.5t46.5 334.5t-44 335t-137 79q-88 0 -135 -80t-47 -334z M616 1167v228h252v-228h-252z" />
<glyph unicode="&#xf7;" horiz-adv-x="1214" d="M121 406v186h975v-186h-975zM487 0v240h240v-240h-240zM487 758v239h240v-239h-240z" />
<glyph unicode="&#xf8;" d="M82 -53l108 159q-53 63 -80.5 157.5t-27.5 223.5q0 268 116.5 389t333.5 121q72 0 127.5 -10t106.5 -37l90 131l80 -63l-86 -127q63 -59 97 -159.5t34 -244.5q0 -266 -115.5 -388t-333.5 -122q-158 0 -262 62l-104 -150zM350 487l2 -141l320 465q-20 43 -54 66.5 t-86 23.5q-88 0 -135 -80t-47 -334zM377 199q18 -59 57 -92t98 -33q88 0 134.5 78.5t46.5 334.5v50q0 84 -8 141z" />
<glyph unicode="&#xf9;" horiz-adv-x="1101" d="M131 303v672h248v-608q0 -100 28.5 -155.5t96.5 -55.5q104 0 150 139t46 297v383h248v-975h-248v219q-68 -133 -139.5 -187.5t-163.5 -54.5q-137 0 -201.5 83t-64.5 243zM307 1487h248l92 -342h-170z" />
<glyph unicode="&#xfa;" horiz-adv-x="1101" d="M131 303v672h248v-608q0 -100 28.5 -155.5t96.5 -55.5q104 0 150 139t46 297v383h248v-975h-248v219q-68 -133 -139.5 -187.5t-163.5 -54.5q-137 0 -201.5 83t-64.5 243zM457 1145l94 342h246l-170 -342h-170z" />
<glyph unicode="&#xfb;" horiz-adv-x="1101" d="M131 303v672h248v-608q0 -100 28.5 -155.5t96.5 -55.5q104 0 150 139t46 297v383h248v-975h-248v219q-68 -133 -139.5 -187.5t-163.5 -54.5q-137 0 -201.5 83t-64.5 243zM221 1145l198 305h222l198 -305h-166l-143 172l-143 -172h-166z" />
<glyph unicode="&#xfc;" horiz-adv-x="1101" d="M131 303v672h248v-608q0 -100 28.5 -155.5t96.5 -55.5q104 0 150 139t46 297v383h248v-975h-248v219q-68 -133 -139.5 -187.5t-163.5 -54.5q-137 0 -201.5 83t-64.5 243zM194 1167v228h252v-228h-252zM616 1167v228h252v-228h-252z" />
<glyph unicode="&#xfd;" horiz-adv-x="911" d="M2 975h254l221 -666l232 666h200l-487 -1413h-201l146 424zM361 1145l94 342h246l-170 -342h-170z" />
<glyph unicode="&#xfe;" d="M121 -438v1851h248v-602q41 72 104.5 129t163.5 57q182 0 264 -137t82 -366q0 -254 -91 -385.5t-286 -131.5q-100 0 -150 44.5t-83 109.5l-4 -569h-248zM381 494q0 -168 30.5 -271.5t141.5 -103.5q96 0 129 109.5t33 265.5q0 141 -34 245.5t-134 104.5q-106 0 -136 -99.5 t-30 -250.5z" />
<glyph unicode="&#xff;" horiz-adv-x="911" d="M2 975h254l221 -666l232 666h200l-487 -1413h-201l146 424zM119 1167v228h252v-228h-252zM541 1167v228h252v-228h-252z" />
<glyph unicode="&#x152;" horiz-adv-x="1898" d="M94 707q0 342 129 535.5t400 193.5q143 0 228 -50.5t140 -136.5l4 164h817v-162h-561v-430h533v-162h-533v-489h578v-170h-834v174q-53 -84 -141 -140.5t-231 -56.5q-268 0 -398.5 195t-130.5 535zM377 707q0 -285 71.5 -439.5t231.5 -154.5q162 0 238.5 155.5 t76.5 438.5q0 279 -77.5 436t-237.5 157q-158 0 -230.5 -156.5t-72.5 -436.5z" />
<glyph unicode="&#x153;" horiz-adv-x="1595" d="M82 487q0 268 116.5 389t333.5 121q113 0 184.5 -42t110.5 -107q43 66 114 107.5t189 41.5q238 0 312 -144t74 -353h-574q0 -76 67.5 -236t305.5 -160q59 0 98 11.5t84 31.5v-112q-49 -16 -133 -37t-166 -21q-145 0 -220 42t-140 120q-45 -76 -116 -119t-190 -43 q-219 0 -334.5 120t-115.5 390zM350 487q0 -203 33.5 -308t148.5 -105q123 0 157 103.5t34 309.5q0 256 -48 335t-143 79q-88 0 -135 -80t-47 -334zM942 602h326v33q0 109 -29 187.5t-113 78.5q-96 0 -140 -104.5t-44 -194.5z" />
<glyph unicode="&#x178;" horiz-adv-x="1101" d="M-35 1413h309l297 -518l308 518h258l-463 -751v-662h-268v662zM215 1605v228h252v-228h-252zM637 1605v228h252v-228h-252z" />
<glyph unicode="&#x2000;" horiz-adv-x="997" />
<glyph unicode="&#x2001;" horiz-adv-x="1994" />
<glyph unicode="&#x2002;" horiz-adv-x="997" />
<glyph unicode="&#x2003;" horiz-adv-x="1994" />
<glyph unicode="&#x2004;" horiz-adv-x="664" />
<glyph unicode="&#x2005;" horiz-adv-x="498" />
<glyph unicode="&#x2006;" horiz-adv-x="332" />
<glyph unicode="&#x2007;" horiz-adv-x="332" />
<glyph unicode="&#x2008;" horiz-adv-x="249" />
<glyph unicode="&#x2009;" horiz-adv-x="398" />
<glyph unicode="&#x200a;" horiz-adv-x="110" />
<glyph unicode="&#x2010;" horiz-adv-x="948" d="M94 418v219h762v-219h-762z" />
<glyph unicode="&#x2011;" horiz-adv-x="948" d="M94 418v219h762v-219h-762z" />
<glyph unicode="&#x2012;" horiz-adv-x="948" d="M94 418v219h762v-219h-762z" />
<glyph unicode="&#x2013;" horiz-adv-x="1138" d="M94 418v219h950v-219h-950z" />
<glyph unicode="&#x2014;" horiz-adv-x="1480" d="M94 418v219h1295v-219h-1295z" />
<glyph unicode="&#x2018;" horiz-adv-x="493" d="M88 928l107 485h186l-16 -485h-277z" />
<glyph unicode="&#x2019;" horiz-adv-x="493" d="M113 928l18 485h277l-109 -485h-186z" />
<glyph unicode="&#x201a;" horiz-adv-x="493" d="M113 -203l18 486h277l-109 -486h-186z" />
<glyph unicode="&#x201c;" horiz-adv-x="872" d="M88 928l107 485h186l-16 -485h-277zM467 928l108 485h187l-19 -485h-276z" />
<glyph unicode="&#x201d;" horiz-adv-x="872" d="M113 928l18 485h277l-109 -485h-186zM492 928l18 485h276l-108 -485h-186z" />
<glyph unicode="&#x201e;" horiz-adv-x="872" d="M113 -203l18 486h277l-109 -486h-186zM492 -203l18 486h276l-108 -486h-186z" />
<glyph unicode="&#x2022;" horiz-adv-x="1138" d="M199 705q0 152 108.5 262t261.5 110q154 0 262.5 -108.5t108.5 -263.5q0 -152 -108.5 -260.5t-262.5 -108.5q-152 0 -261 107.5t-109 261.5z" />
<glyph unicode="&#x2026;" horiz-adv-x="1517" d="M137 0v240h240v-240h-240zM639 0v240h240v-240h-240zM1141 0v240h239v-240h-239z" />
<glyph unicode="&#x202f;" horiz-adv-x="398" />
<glyph unicode="&#x2039;" horiz-adv-x="493" d="M49 516l174 395h201l-133 -395l133 -395h-201z" />
<glyph unicode="&#x203a;" horiz-adv-x="493" d="M70 121l131 395l-131 395h198l176 -395l-176 -395h-198z" />
<glyph unicode="&#x205f;" horiz-adv-x="498" />
<glyph unicode="&#x2122;" horiz-adv-x="1253" d="M113 1327v86h389v-86h-152v-508h-88v508h-149zM569 819v594h160l123 -467l125 467h164v-594h-88v537l-144 -537h-108l-139 537l-5 -537h-88z" />
<glyph unicode="&#xe000;" horiz-adv-x="972" d="M0 0v973h973v-973h-973z" />
</font>
</defs>
</svg>
